<?xml version="1.0" encoding="UTF-8"?><svg id="Layer_1" xmlns="http://www.w3.org/2000/svg" viewBox="0 0 195.07 195.42"><path d="M0,195.42v-124.27h48.56c.15,1.82.45,3.72.45,5.62.04,21.33.23,42.67-.1,64-.08,5.3,1.66,6.29,6.52,6.27,44.49-.17,88.97-.1,133.46-.1,1.95,0,3.9,0,6.18,0v48.49H0Z" style="stroke-width:0px;"/><path d="M195,124.75c-5.5,0-10.78,0-16.05,0-9,0-18-.23-26.98.08-4.36.15-5.76-1.14-5.72-5.59.19-21.33.06-42.65.05-63.98q0-6.69-6.93-6.69c-44.31,0-88.62,0-132.93,0-1.97,0-3.95,0-6.32,0V0h194.9v124.75Z" style="stroke-width:0px;"/></svg>