<?xml version="1.0" encoding="utf-8"?>
<!-- Generator: Adobe Illustrator 28.2.0, SVG Export Plug-In . SVG Version: 6.00 Build 0)  -->
<svg version="1.1" id="Layer_1" xmlns="http://www.w3.org/2000/svg" xmlns:xlink="http://www.w3.org/1999/xlink" x="0px" y="0px"
	 viewBox="0 0 100.3 67.3" style="enable-background:new 0 0 100.3 67.3;" xml:space="preserve">
<style type="text/css">
	.st0{opacity:0.8;enable-background:new    ;}
</style>
<g id="onlyfans-seeklogo.com" transform="translate(9.769 103.5)">
	<g transform="matrix(1, 0, 0, 1, -9.77, -103.5)">
		<path id="Path_3-2" class="st0" d="M33.5,0.2C52,0.3,66.9,15.3,66.8,33.8c0,13.5-8.2,25.6-20.6,30.8c-17.1,7-36.6-1.2-43.6-18.2
			c-7-17.1,1.2-36.6,18.2-43.6C24.9,1.1,29.2,0.2,33.5,0.2z M33.5,43.7c5.5,0,10-4.5,10.1-10c0-5.5-4.5-10-10-10.1
			c-5.5,0-10,4.5-10.1,10c0,1.3,0.3,2.6,0.8,3.9C25.8,41.2,29.4,43.7,33.5,43.7z"/>
	</g>
	<g transform="matrix(1, 0, 0, 1, -9.77, -103.5)">
		<path id="Path_4-2" d="M70.9,25.3c8.5,2.4,18.5,0,18.5,0C86.5,38,77.3,46,64,46.9c-5.2,12.2-17.3,20.2-30.6,20.2l10-31.9
			C53.8,2.5,59,0.2,83.4,0.2h16.7C97.3,12.6,87.7,22.1,70.9,25.3L70.9,25.3z"/>
	</g>
</g>
</svg>
