<svg class="svg-icon" style="width: 1em; height: 1em;vertical-align: middle;fill: currentColor;overflow: hidden;" viewBox="0 0 1024 1024" version="1.1" xmlns="http://www.w3.org/2000/svg"><path d="M1021.6987 785.346c-10.422 24.314-54.478 42.178-134.72 54.636-4.128 5.572-7.55 29.372-13.014 47.912-3.25 11.132-11.246 17.738-24.256 17.738l-0.594-0.01c-18.79 0-38.406-8.646-77.704-8.646-53.042 0-71.324 12.086-112.508 41.176-43.664 30.876-85.542 57.528-148.054 54.798-63.292 4.668-116.05-33.816-145.742-54.808-41.428-29.286-59.656-41.164-112.482-41.164-37.728 0-61.472 9.44-77.704 9.44-16.146 0-22.426-9.844-24.844-18.08-5.406-18.378-8.808-42.526-13.046-48.26-41.358-6.418-134.62-22.688-136.996-64.3a21.254 21.254 0 0 1 17.754-22.138c139.166-22.91 201.848-165.802 204.454-171.868 0.148-0.352 0.31-0.688 0.474-1.03 7.426-15.074 9.088-27.698 4.926-37.506-10.1-23.792-53.744-32.328-72.106-39.592-47.43-18.732-54.03-40.256-51.224-55.008 4.874-25.672 43.45-41.47 66.004-30.906 17.838 8.362 33.686 12.594 47.094 12.594 10.044 0 16.424-2.408 19.92-4.342-4.086-71.872-14.202-174.58 11.374-231.938C316.2507 42.608 459.4167 30.84 501.6587 30.84c1.888 0 18.282-0.178 20.22-0.178 104.296 0 204.508 53.56 253.446 163.286 25.554 57.3 15.498 159.584 11.39 232.018 3.164 1.744 8.714 3.884 17.198 4.278 12.794-0.572 27.63-4.778 44.138-12.514 12.17-5.692 28.812-4.922 40.96 0.116l0.058 0.02c18.952 6.77 30.878 20.43 31.178 35.74 0.368 19.494-17.044 36.33-51.756 50.036-4.236 1.67-9.388 3.31-14.868 5.05-19.594 6.212-49.2 15.61-57.232 34.542-4.158 9.808-2.512 22.422 4.92 37.496 0.174 0.336 0.332 0.684 0.478 1.03 2.602 6.06 65.23 148.92 204.46 171.868 12.854 2.116 22.326 15.754 15.45 31.718z" fill="" /></svg>