<?xml version="1.0" encoding="utf-8"?>
<!-- Generator: Adobe Illustrator 27.0.1, SVG Export Plug-In . SVG Version: 6.00 Build 0)  -->
<svg version="1.1" id="Layer_1" xmlns="http://www.w3.org/2000/svg" xmlns:xlink="http://www.w3.org/1999/xlink" x="0px" y="0px"
	 viewBox="0 0 22.2 22" style="enable-background:new 0 0 22.2 22;" xml:space="preserve">
<path d="M15.2,0c0.3,0,0.5,0.2,0.5,0.5v0.1L15,3.8c0,0.1,0.1,0.3,0.2,0.3c0,0,0,0,0.1,0h6.4c0.3,0,0.6,0.2,0.5,0.6L20.7,11
	c-0.1,0.3-0.3,0.4-0.6,0.4l-3.5-0.2c-1.1,0-2.3,0.3-3.2,1.3c-1.2,1.2-1.3,3-0.8,4.3s1.9,2,3.3,1.7c1.1-0.2,1.7-1.3,1.6-2.2
	c-0.1-1-0.5-1.3-1.1-1.3s-0.8,0.3-0.8,0.6c0,0.3,0.1,0.5,0.3,0.7c0.3,0.3-0.3,1.2-1.1,0.7c-0.5-0.3-0.8-0.9-0.7-1.8
	c0.1-1.1,1-2.1,2.6-2.1c1.6,0,2.8,1,3.1,2.5c0.5,1.9-0.5,4.2-2.8,5.4c-2.8,1.5-7.5,1.4-10.1-1.4C5.4,18,4.9,15.9,5,14
	c0-0.6,0.1-1.3,0.3-1.9c0-0.2-0.1-0.4-0.3-0.5H4.9H0.5C0.2,11.6,0,11.3,0,11v-0.1l1.4-6.1c0.1-0.4,0.4-0.6,0.8-0.6h4.3
	C6.7,4.1,6.9,4,7,3.7l0.7-3.1C7.8,0.2,8.2,0,8.5,0H15.2z"/>
</svg>
