<svg xmlns="http://www.w3.org/2000/svg" viewBox="0 0 1789.18 390">
    <path d="M78.4,327.6c-25.6,0-45.47-7.87-59.6-23.6-12.54-14.13-18.8-31.86-18.8-53.2,0-22.66,6.53-42.13,19.6-58.4,14.4-17.86,32.93-26.8,55.6-26.8,11.73,0,21.86,2.67,30.4,8,9.33,6.4,14,15.6,14,27.6,0,4.8-2.4,7.2-7.2,7.2-4,0-6-2.13-6-6.4,0-15.2-10.54-22.8-31.6-22.8-18.4,0-33.6,7.47-45.6,22.4-10.94,14.14-16.4,30.4-16.4,48.8s5.2,32.27,15.6,44c11.73,12.8,28.13,19.2,49.2,19.2,45.86,0,99.6-42.8,161.2-128.4-14.4,0-24.67,2.8-30.8,8.4-1.87,1.6-3.87,2.4-6,2.4-4.27,0-6.4-2-6.4-6,0-1.33.4-2.53,1.2-3.6,7.46-10.93,24.66-15.86,51.6-14.8,27.46-39.2,52.26-81.46,74.4-126.8,6.13-12.53,10.93-21.33,14.4-26.4,1.06-1.86,2.8-2.8,5.2-2.8,5.06,0,7.6,2.4,7.6,7.2,0,1.34-.2,3.74-.6,7.2-.4,3.47-1.27,8-2.6,13.6l-4.8,21.2c-2.94,17.87-5.67,36.14-8.2,54.8-2.54,18.67-4.87,37.74-7,57.2,13.6,0,22-.8,25.2-2.4,3.46-1.6,5.33-3.73,5.6-6.4.53-2.66,1.33-4.26,2.4-4.8,1.06-.53,2.4-.8,4-.8,4.53,0,6.8,2.14,6.8,6.4,0,15.2-14.94,22.4-44.8,21.6-.54,7.74-1,15.14-1.4,22.2-.4,7.07-.6,13.67-.6,19.8,0,26.14,2.26,43.07,6.8,50.8,3.2,5.34,7.6,8.8,13.2,10.4,4.8,1.07,7.2,3.2,7.2,6.4,0,4.53-3.07,6.8-9.2,6.8-3.2,0-7.34-1.74-12.4-5.2-12.8-8-19.2-31.86-19.2-71.6,0-6.13.2-12.53.6-19.2.4-6.66.86-13.6,1.4-20.8-6.4-.53-14.4-1.2-24-2-9.6-.8-20.67-1.6-33.2-2.4-67.47,94.67-126.4,142-176.8,142ZM313.2,176.4c1.06-11.73,2.8-26.86,5.2-45.4,2.4-18.53,5.73-40.6,10-66.2-10.94,20.54-21.74,39.8-32.4,57.8-10.67,18-21.34,34.6-32,49.8,5.33.27,12.13.74,20.4,1.4,8.26.67,17.86,1.54,28.8,2.6Z" style="stroke-width:0px;"/>
    <path d="M572.4,300c-20.54,0-30.8-9.86-30.8-29.6,0-12.53,6.53-36.4,19.6-71.6,5.86-16,8.8-26.66,8.8-32,0-10.93-4.27-16.4-12.8-16.4-9.34,0-18.4,4.54-27.2,13.6-14.67,14.67-26.27,30-34.8,46-4.8,9.34-10.67,22.67-17.6,40-3.74,9.87-7.07,18.2-10,25-2.94,6.8-5.34,12.34-7.2,16.6-1.34,2.14-2.94,3.2-4.8,3.2-2.14,0-4.2-.73-6.2-2.2-2-1.46-3-3-3-4.6s2-6.8,6-15.6c20.26-46.93,30.4-79.33,30.4-97.2,0-14.13-4.8-21.2-14.4-21.2-10.67,0-21.2,6-31.6,18-14.67,16.27-26.27,35.34-34.8,57.2-3.47,10.67-7,21.2-10.6,31.6-3.6,10.4-7.14,20.94-10.6,31.6-1.07,2.67-2.8,4-5.2,4-5.33,0-8-2.53-8-7.6l22.8-72.4c8.8-28.53,13.2-53.33,13.2-74.4,0-4.53,2.4-6.8,7.2-6.8,4.26,0,6.4,2.94,6.4,8.8,0,5.07-.27,10.47-.8,16.2-.54,5.74-1.34,11.67-2.4,17.8,2.4-3.46,4.73-6.66,7-9.6,2.26-2.93,4.46-5.46,6.6-7.6,14.4-14.4,29.06-21.6,44-21.6,17.33,0,26,12.27,26,36.8v5.2c4.53-6.93,9.13-13,13.8-18.2,4.66-5.2,9.53-9.53,14.6-13,13.33-9.6,24.93-14.4,34.8-14.4,16,0,24,10.27,24,30.8,0,6.14-3.2,17.87-9.6,35.2-4.54,12.27-8.94,24.67-13.2,37.2-4.27,12.54-6.4,22.4-6.4,29.6,0,11.74,5.46,17.6,16.4,17.6,9.6,0,19.13-3.8,28.6-11.4,9.46-7.6,17.26-15.93,23.4-25,.53-1.06,1.86-3,4-5.8,2.13-2.8,3.86-4.2,5.2-4.2,4.53,0,6.8,1.87,6.8,5.6,0,.54-.27,1.47-.8,2.8-.54,1.34-1.07,2.27-1.6,2.8-4,8.27-9.74,16.2-17.2,23.8-7.47,7.6-15.4,13.74-23.8,18.4-8.4,4.66-16.47,7-24.2,7Z" style="stroke-width:0px;"/>
    <path d="M631.99,390c-8.8,0-16.33-2.34-22.6-7-6.26-4.67-9.4-11.54-9.4-20.6,0-16.54,7.2-29.2,21.6-38,5.33-3.47,11.93-6.47,19.8-9,7.86-2.54,16.86-4.47,27-5.8l45.6-6c3.46-9.6,7.26-21.26,11.4-35,4.13-13.73,8.6-29.53,13.4-47.4-17.6,37.34-38.54,61.34-62.8,72-9.87,4.53-18.8,6.8-26.8,6.8-18.94,0-28.4-10-28.4-30,0-8.8,2.14-19.06,6.4-30.8l20.4-43.2c9.86-20.53,14.8-34,14.8-40.4,0-1.33-.4-3.06-1.2-5.2-.8-2.13-1.2-3.6-1.2-4.4,0-4.8,2.26-7.2,6.8-7.2,2.93,0,5.33,1.67,7.2,5,1.86,3.34,2.8,6.47,2.8,9.4,0,9.07-5.2,24.27-15.6,45.6-5.87,10.67-13.47,27.47-22.8,50.4-2.4,7.47-3.6,14-3.6,19.6,0,12.27,5.33,18.4,16,18.4,4.8,0,10.53-1.46,17.2-4.4,17.33-7.73,33.06-22.8,47.2-45.2,2.93-5.06,6.86-12.6,11.8-22.6,4.93-10,10.73-22.46,17.4-37.4,1.33-3.73,3.33-8.33,6-13.8,2.66-5.46,5.73-11.93,9.2-19.4,1.06-1.86,2.66-2.8,4.8-2.8,5.6,0,8.13,2.67,7.6,8l-15.2,57.2c-2.67,10.4-6.27,23.4-10.8,39-4.54,15.6-9.87,33.67-16,54.2,14.93-3.73,28.33-9.66,40.2-17.8,11.86-8.13,22.2-19,31-32.6.53-.8,1.4-2.13,2.6-4,1.2-1.86,1.93-3.06,2.2-3.6.8-1.06,1.8-1.66,3-1.8,1.2-.13,2.33-.2,3.4-.2,1.33,0,2.26,1,2.8,3,.53,2,.8,3.4.8,4.2s-.27,1.74-.8,2.8c-18.94,34.14-49.34,56-91.2,65.6-8.8,19.73-20.94,36.53-36.4,50.4-17.87,16-36.4,24-55.6,24ZM631.59,376.8c14.13,0,28.8-6.4,44-19.2,12.8-10.4,23.33-23.47,31.6-39.2-5.87.53-13.4,1.46-22.6,2.8-9.2,1.33-20.07,3.06-32.6,5.2-25.07,6.66-37.6,18.13-37.6,34.4,0,10.66,5.74,16,17.2,16Z" style="stroke-width:0px;"/>
    <path d="M856.39,326.4c-4-1.6-6-4.27-6-8s2.53-5.6,7.6-5.6c1.6,0,4-2.27,7.2-6.8-38.4-14.13-57.6-36.53-57.6-67.2,0-10.4,2.47-20.6,7.4-30.6,4.93-10,11.66-18.33,20.2-25,8.53-6.66,17.86-10,28-10,10.93,0,16.4,2.8,16.4,8.4,0,4.8-2.14,7.2-6.4,7.2-1.07,0-2.74-.33-5-1-2.27-.66-4.07-1-5.4-1-7.2,0-14,2.67-20.4,8-6.4,5.34-11.54,11.94-15.4,19.8-3.87,7.87-5.8,15.8-5.8,23.8,0,25.6,17.33,44.4,52,56.4,2.13-3.73,4.2-7.6,6.2-11.6s3.66-8,5-12c4.26-10.66,9.53-26.6,15.8-47.8,6.26-21.2,13.53-47.53,21.8-79,14.13-53.86,28.93-95.33,44.4-124.4-14.67-.53-29.34.47-44,3-14.67,2.54-28.07,6.74-40.2,12.6-12.14,5.87-21.87,13.4-29.2,22.6-7.34,9.2-11,20.2-11,33,0,8.27,2.66,15.14,8,20.6,5.33,5.47,12.93,8.2,22.8,8.2,7.2,0,12.53-1.2,16-3.6,3.46-2.4,6.2-4.73,8.2-7,2-2.26,4.06-3.4,6.2-3.4,4.26,0,6.4,2.27,6.4,6.8,0,1.07-.34,2.07-1,3-.67.94-1.4,1.94-2.2,3-3.74,4.8-8.6,8.4-14.6,10.8-6,2.4-12.07,3.6-18.2,3.6-13.6,0-24.67-4.13-33.2-12.4-8.54-8.26-12.8-18.4-12.8-30.4,0-21.6,11.2-40.13,33.6-55.6,26.66-18.66,64.53-28,113.6-28,4.53-4.53,8.53-6.8,12-6.8,4.8,0,7.2,2.4,7.2,7.2,0,1.07-.14,1.74-.4,2,25.86,3.74,46.2,11.14,61,22.2,14.8,11.07,22.2,26.2,22.2,45.4,0,29.6-17.87,52-53.6,67.2,16.53,7.74,29.66,18.07,39.4,31,9.73,12.94,14.6,27,14.6,42.2s-4.14,29.8-12.4,42.2c-8.27,12.4-19.34,22.87-33.2,31.4-13.87,8.53-29.47,15.06-46.8,19.6-17.34,4.53-35.07,6.8-53.2,6.8-19.2,0-36.8-2.14-52.8-6.4-6.4,9.06-13.87,14.26-22.4,15.6ZM931.59,303.6c16.53,0,32.6-1.94,48.2-5.8,15.6-3.86,29.66-9.4,42.2-16.6,12.53-7.2,22.53-16.13,30-26.8,7.46-10.66,11.2-22.8,11.2-36.4,0-15.2-5.74-28.93-17.2-41.2-11.47-12.26-26.27-21.2-44.4-26.8-6.67,1.34-13,2.34-19,3-6,.67-11.54,1-16.6,1-3.2,0-6.87-.33-11-1-4.14-.66-7.74-1.8-10.8-3.4-3.07-1.6-4.6-3.6-4.6-6,0-2.93,1.66-5.26,5-7,3.33-1.73,7.13-3,11.4-3.8,4.26-.8,7.6-1.2,10-1.2,11.2,0,23.33,1.47,36.4,4.4,10.93-1.86,21-5.46,30.2-10.8,9.2-5.33,16.6-12.13,22.2-20.4,5.6-8.26,8.4-17.46,8.4-27.6,0-31.2-27.34-50-82-56.4-5.87,10.67-11.8,23.6-17.8,38.8-6,15.2-11.94,32.94-17.8,53.2-3.47,13.87-7.07,27.6-10.8,41.2-3.74,13.6-7.47,27.34-11.2,41.2-8.8,32.27-17.47,59.2-26,80.8-3.47,8.27-7.07,15.87-10.8,22.8,14.93,3.2,29.86,4.8,44.8,4.8Z" style="stroke-width:0px;"/>
    <path d="M1221.19,299.2c-9.87,0-18.14-3-24.8-9-6.67-6-9.47-14.73-8.4-26.2-16.27,23.2-35.87,34.8-58.8,34.8-14.67,0-25.6-5.73-32.8-17.2-5.87-9.06-8.8-21.33-8.8-36.8,0-2.93.13-5.93.4-9,.26-3.06.66-6.06,1.2-9,1.86-10.66,5.46-21,10.8-31,5.33-10,12.26-19.93,20.8-29.8,19.2-21.6,39.06-32.4,59.6-32.4,10.93,0,20,3.14,27.2,9.4,7.2,6.27,10.8,15,10.8,26.2,0,4.54-1.2,8.94-3.6,13.2,5.6.27,7.86,2.8,6.8,7.6l-12.8,36.4c-4.27,12-6.4,22.94-6.4,32.8,0,9.07,1.93,16.14,5.8,21.2,3.86,5.07,9.13,7.6,15.8,7.6,3.73,0,7.86-1.06,12.4-3.2,4.53-2.13,9.73-5.73,15.6-10.8,4-3.46,7.8-7.33,11.4-11.6,3.6-4.26,6.73-8.53,9.4-12.8,1.6-2.4,3.33-4.73,5.2-7,1.86-2.26,3.73-3.4,5.6-3.4,3.2,0,4.8,1.74,4.8,5.2,0,1.34-.2,2.6-.6,3.8-.4,1.2-.87,2.07-1.4,2.6-3.47,5.6-7.34,11.07-11.6,16.4-4.27,5.34-8.8,10.27-13.6,14.8-6.4,5.87-13.07,10.2-20,13-6.94,2.8-13.6,4.2-20,4.2ZM1101.19,246.8c0,25.6,9.86,38.4,29.6,38.4,16.8,0,31.33-8,43.6-24,3.73-5.06,7.6-11.46,11.6-19.2,4-7.73,7.86-16.8,11.6-27.2,1.06-2.66,2.2-5.8,3.4-9.4s2.73-7.66,4.6-12.2c-5.34,4-10.8,6-16.4,6-9.6,0-14.4-2.66-14.4-8,0-4.53,2.26-6.8,6.8-6.8.8,0,1.93.2,3.4.6,1.46.4,2.6.6,3.4.6,4,0,7.73-1.73,11.2-5.2,3.46-3.46,5.2-7.2,5.2-11.2,0-14.66-8.27-22-24.8-22s-33.07,9.6-49.6,28.8c-15.74,17.6-24.94,35.34-27.6,53.2-.54,2.94-.94,5.87-1.2,8.8-.27,2.94-.4,5.87-.4,8.8Z" style="stroke-width:0px;"/>
    <path d="M1321.58,304c-27.74,0-41.6-20.8-41.6-62.4,0-20.8,3.2-43.2,9.6-67.2h-.8c-5.87-1.06-8.8-3.6-8.8-7.6,0-4.53,2.26-6.8,6.8-6.8,1.6,0,4,.4,7.2,1.2,20.26-54.4,41.86-94.66,64.8-120.8,10.66-12.26,21.33-18.4,32-18.4,13.06,0,19.6,9.6,19.6,28.8,0,26.67-10.94,53.87-32.8,81.6-23.47,30.4-48.27,44.8-74.4,43.2-3.47,10.14-6,20.67-7.6,31.6-1.6,10.94-2.4,22.14-2.4,33.6,0,32.27,9.2,48.4,27.6,48.4,10.66,0,21.2-6.13,31.6-18.4,9.86-12.26,14.8-26,14.8-41.2,0-17.6-5.47-26.4-16.4-26.4-4.8,0-9.27,1.6-13.4,4.8-4.14,3.2-6.2,6.4-6.2,9.6,0,.54.26,1.34.8,2.4.53,1.07.8,2.14.8,3.2,0,4.54-2.27,6.8-6.8,6.8-2.67,0-4.74-1.46-6.2-4.4-1.47-2.93-2.2-5.73-2.2-8.4,0-7.46,3.4-13.93,10.2-19.4,6.8-5.46,14.46-8.2,23-8.2,20.26,0,30.4,13.34,30.4,40,0,21.07-6.8,39.07-20.4,54-11.47,13.6-24.54,20.4-39.2,20.4ZM1307.98,162c22.4-1.33,42.93-15.06,61.6-41.2,17.86-24.53,26.8-48.4,26.8-71.6,0-9.6-2.67-14.4-8-14.4-4.54,0-10,3.34-16.4,10-22.14,23.74-43.47,62.8-64,117.2Z" style="stroke-width:0px;"/>
    <path d="M1401.18,390c-8.8,0-16.33-2.34-22.6-7-6.26-4.67-9.4-11.54-9.4-20.6,0-16.54,7.2-29.2,21.6-38,5.33-3.47,11.93-6.47,19.8-9,7.86-2.54,16.86-4.47,27-5.8l45.6-6c3.46-9.6,7.26-21.26,11.4-35,4.13-13.73,8.6-29.53,13.4-47.4-17.6,37.34-38.54,61.34-62.8,72-9.87,4.53-18.8,6.8-26.8,6.8-18.94,0-28.4-10-28.4-30,0-8.8,2.14-19.06,6.4-30.8l20.4-43.2c9.86-20.53,14.8-34,14.8-40.4,0-1.33-.4-3.06-1.2-5.2-.8-2.13-1.2-3.6-1.2-4.4,0-4.8,2.26-7.2,6.8-7.2,2.93,0,5.33,1.67,7.2,5,1.86,3.34,2.8,6.47,2.8,9.4,0,9.07-5.2,24.27-15.6,45.6-5.87,10.67-13.47,27.47-22.8,50.4-2.4,7.47-3.6,14-3.6,19.6,0,12.27,5.33,18.4,16,18.4,4.8,0,10.53-1.46,17.2-4.4,17.33-7.73,33.06-22.8,47.2-45.2,2.93-5.06,6.86-12.6,11.8-22.6,4.93-10,10.73-22.46,17.4-37.4,1.33-3.73,3.33-8.33,6-13.8,2.66-5.46,5.73-11.93,9.2-19.4,1.06-1.86,2.66-2.8,4.8-2.8,5.6,0,8.13,2.67,7.6,8l-15.2,57.2c-2.67,10.4-6.27,23.4-10.8,39-4.54,15.6-9.87,33.67-16,54.2,14.93-3.73,28.33-9.66,40.2-17.8,11.86-8.13,22.2-19,31-32.6.53-.8,1.4-2.13,2.6-4,1.2-1.86,1.93-3.06,2.2-3.6.8-1.06,1.8-1.66,3-1.8,1.2-.13,2.33-.2,3.4-.2,1.33,0,2.26,1,2.8,3,.53,2,.8,3.4.8,4.2s-.27,1.74-.8,2.8c-18.94,34.14-49.34,56-91.2,65.6-8.8,19.73-20.94,36.53-36.4,50.4-17.87,16-36.4,24-55.6,24ZM1400.78,376.8c14.13,0,28.8-6.4,44-19.2,12.8-10.4,23.33-23.47,31.6-39.2-5.87.53-13.4,1.46-22.6,2.8-9.2,1.33-20.07,3.06-32.6,5.2-25.07,6.66-37.6,18.13-37.6,34.4,0,10.66,5.74,16,17.2,16Z" style="stroke-width:0px;"/>
    <path d="M1713.58,318.4c-16.8,0-41.2-4-73.2-12-32.54-7.74-56.8-11.6-72.8-11.6-8.27,0-16.54,1.47-24.8,4.4-.53.26-1.2.4-2,.4-1.86,0-3.53-.74-5-2.2-1.46-1.46-2.2-3.13-2.2-5,0-1.6.4-2.93,1.2-4,14.93-18.13,31.73-37.93,50.4-59.4,18.66-21.46,39.2-44.33,61.6-68.6l115.6-125.2c-6.67.8-14.67,1.2-24,1.2-6.67,0-19.2-1.2-37.6-3.6-17.87-2.4-31.47-3.6-40.8-3.6-11.74,0-21.2,1.6-28.4,4.8-9.07,3.74-17,10.2-23.8,19.4s-10.2,18.6-10.2,28.2c0,7.74,2.4,14,7.2,18.8s11.2,7.2,19.2,7.2c6.13,0,11.73-2.4,16.8-7.2,5.06-5.06,8.13-7.6,9.2-7.6,4.8,0,7.2,2.27,7.2,6.8,0,1.07-.4,2.27-1.2,3.6-8,12-18.67,18-32,18-12,0-21.74-3.73-29.2-11.2-7.47-7.46-11.2-17.2-11.2-29.2s4.13-24,12.4-35.2c8.26-11.2,18.26-19.33,30-24.4,10.13-4,22-6,35.6-6,4.53,0,10.33.34,17.4,1,7.06.67,15.26,1.67,24.6,3,18.93,2.4,32.4,3.6,40.4,3.6,12.8,0,24.8-2.26,36-6.8.53-.26,1.33-.4,2.4-.4,4.53,0,6.8,2.54,6.8,7.6,0,1.07-.4,2.27-1.2,3.6-24.27,29.87-62,72-113.2,126.4-26.4,28.27-49.27,53.07-68.6,74.4-19.34,21.34-35.14,39.47-47.4,54.4,1.33-.26,2.8-.4,4.4-.4h4.4c8.26,0,18.46.94,30.6,2.8,12.13,1.87,26.06,4.67,41.8,8.4,16,3.73,30.06,6.53,42.2,8.4,12.13,1.86,22.33,2.8,30.6,2.8,19.2,0,34.13-4.8,44.8-14.4,9.33-8.53,14-19.06,14-31.6,0-10.66-3.6-20-10.8-28s-16.8-12-28.8-12c-9.07,0-16.67,2.27-22.8,6.8-2.94,2.4-6.4,6.67-10.4,12.8-2.94,4.54-5.47,6.8-7.6,6.8-2.4,0-4.34-.93-5.8-2.8-1.47-1.86-1.8-4-1-6.4,8.53-20.53,24.53-30.8,48-30.8,16.26,0,29.2,5.34,38.8,16,9.6,10.67,14.4,23.2,14.4,37.6,0,16.27-5.87,30-17.6,41.2-13.07,12.8-31.2,19.2-54.4,19.2Z" style="stroke-width:0px;"/>
</svg>